<svg id="Layer_1" xmlns="http://www.w3.org/2000/svg" viewBox="0 0 690.4 186.6" width="2500" height="676"><style>.st0{fill:#ffe01e}.st1{fill-rule:evenodd;clip-rule:evenodd}</style><path d="M260.6 186.6L228 154H121.3v9.2H65.1l-25.7-25.7V98.9H28.1L0 70.5V0h513.8l32.6 32.6h80.1c2.5-5.1 7.9-10.3 16.5-10.5 4.3 0 10.4 2.1 13.6 6.1l29.1 29.1c3.2 3.6 4.7 7.8 4.7 13.1v.4c-.7 5.6-3.5 10.4-8 13.6V154H564.9l-17.8 32.7H260.6z"/><path class="st0" d="M678.8 150.4h-116L545 183.1H262.1l-32.6-32.7H117.7v9.2H66.5L43 136V95.3H29.6l-26-26.2V3.6h508.8L545 36.2h84s2.7-10.3 14.1-10.5c3.7 0 8.6 2 10.8 4.9l29.2 29.3c2.8 3.1 3.6 6.6 3.6 10.6-.7 5.4-3.6 9.6-8 12.1l.1 67.8z"/><path d="M20 29.1v14.1h48.5v81.5h14.4V43.2h349.4V29.1z"/><path d="M94.6 61.7v53.9h54.9v-14.5h-40.6v-6.3H134V81.9l-25.2.1v-6.1h39.8V61.7zM228.8 61.7v53.9H243V94.8h28.9v20.8h14.3V61.7h-14.3v20.2H243V61.7zM296.7 61.7v53.9h14.2V77.4l30.1 38.2h19.5V61.7h-14.2v38.1l-30.1-38.1z"/><path class="st1" d="M387 61.7h29.2c8.9 0 16.1 7.2 16.1 16.1v21.6c0 8.9-7.2 16.1-16.1 16.1H387c-8.9 0-16.1-7.2-16.1-16.1V77.8c0-8.9 7.3-16.1 16.1-16.1m2.3 14.2h24.8c2.2 0 4 1.8 4 4V97c0 2.2-1.8 4-4 4h-24.8c-2.2 0-4-1.8-4-4V79.8c-.1-2.1 1.7-3.9 4-3.9"/><path d="M204.2 95.2v1.9c0 2.2-1.8 4-4 4h-24.8c-2.2 0-4-1.8-4-4V80c0-2.2 1.8-4 4-4h24.8c2.2 0 4 1.8 4 4v1.9h14.3v-4.1c0-8.9-7.2-16.1-16.1-16.1h-29.1c-8.9 0-16.2 7.2-16.2 16.1v21.6c0 8.9 7.2 16.1 16.1 16.1h29.2c8.9 0 16.1-7.2 16.1-16.1v-4.3l-14.3.1zM506.6 42.8v14.3h-45.1c-2.4 0-4.4 2.2-4.4 5v34c0 2.8 1.9 5 4.3 5H495V90.3h-14V76h28.3v39.6h-49c-9.7 0-17.5-9-17.5-20V62.9c0-11.1 7.8-20 17.5-20l46.3-.1zM622.9 115.6h-12.5l-16.1-32.9v32.9h-14.2V61.7h20.1l16.5 33.5 16.4-33.5h20.1v53.9H639V82.7z"/><path d="M526 148.4H271.9v-14.5h244.9l17.9-32.9-21.3-39.3h16.2l13.3 24.5 13.2-24.5h16.3zM631.8 40.6c0-6.2 5-11.3 11.3-11.3 6.2 0 11.3 5 11.3 11.3 0 6.2-5 11.3-11.3 11.3-6.3 0-11.3-5.1-11.3-11.3m1.6 0c0 5.4 4.3 9.7 9.7 9.7 5.4 0 9.7-4.3 9.7-9.7 0-5.4-4.3-9.7-9.7-9.7-5.4 0-9.7 4.3-9.7 9.7"/><path class="st1" d="M644.1 42.6c1.1 0 1.5.7 1.5 1.7v2.2h2.2v-2.2c0-1.6-.4-2.5-1.9-2.6v-.1c1.9-.3 2-1.5 2-3.2 0-2.6-1-3.4-3.5-3.5h-5.9v11.5h2.2v-3.8h3.4zm-3.4-1.9v-3.9h3.1c1.6 0 1.9.3 1.9 1.9 0 1.7-.4 2-2 2h-3z"/><path d="M644.1 42.6c1.1 0 1.5.7 1.5 1.7v2.2h2.2v-2.2c0-1.6-.4-2.5-1.9-2.6v-.1c1.9-.3 2-1.5 2-3.2 0-2.6-1-3.4-3.5-3.5h-5.9v11.5h2.2v-3.8h3.4zm-3.4-1.9v-3.9h3.1c1.6 0 1.9.3 1.9 1.9 0 1.7-.4 2-2 2h-3zM416.2 61.7H387c-8.9 0-16.1 7.2-16.1 16.1v21.7c0 8.9 7.2 16.1 16.1 16.1h29.2c8.9 0 16.1-7.2 16.1-16.1V77.8c0-8.8-7.2-16.1-16.1-16.1m1.9 35.4c0 2.2-1.8 4-4 4h-24.8c-2.2 0-4-1.8-4-4V79.9c0-2.2 1.8-4 4-4h24.8c2.2 0 4 1.8 4 4v17.2z"/></svg>